<svg version="1.1" id="Layer_1" xmlns="http://www.w3.org/2000/svg" xmlns:xlink="http://www.w3.org/1999/xlink" x="0px" y="0px"
	 width="100%" viewBox="0 0 102 68" enable-background="new 0 0 102 68" xml:space="preserve">
<path fill="#000000" opacity="1.000000" stroke="none" 
	d="
M67.000000,69.000000 
	C44.666672,69.000000 22.833342,69.000000 1.000009,69.000000 
	C1.000006,46.333340 1.000006,23.666683 1.000003,1.000018 
	C34.999985,1.000012 68.999969,1.000012 102.999969,1.000006 
	C102.999977,23.666649 102.999977,46.333298 102.999985,68.999969 
	C91.166664,69.000000 79.333336,69.000000 67.000000,69.000000 
M27.465094,54.746300 
	C28.027792,55.294991 28.657877,55.790146 29.142881,56.400566 
	C34.629498,63.306019 41.678883,66.854149 50.585018,67.059525 
	C57.219204,67.212502 62.715691,64.443329 67.573219,60.620674 
	C76.504761,53.591957 79.041267,38.292953 72.664413,27.734579 
	C65.813438,16.391207 55.290802,14.162927 43.610382,16.181974 
	C29.998695,18.534857 22.648138,33.086391 24.239285,44.184155 
	C24.721170,47.545158 26.128344,50.773502 27.465094,54.746300 
M23.218542,3.128852 
	C21.937807,3.131799 20.438885,2.701966 19.416515,3.217391 
	C16.113615,4.882541 11.457495,14.858736 12.750134,18.189392 
	C14.381263,22.392208 13.637306,26.049372 12.148409,30.043972 
	C9.749892,36.479019 7.722376,43.060719 5.796483,49.655907 
	C5.446842,50.853245 6.333799,52.411690 6.649883,53.803429 
	C7.742248,52.861130 9.407782,52.124199 9.831286,50.942242 
	C12.092909,44.630268 13.883864,38.149151 16.162663,31.844019 
	C17.538403,28.037529 17.766375,23.236944 23.185976,22.130547 
	C23.947269,21.975132 24.737471,20.406054 24.946520,19.376095 
	C25.754637,15.394610 26.282040,11.357152 27.014631,7.358982 
	C27.492031,4.753551 25.935863,3.922913 23.218542,3.128852 
M87.475525,15.967477 
	C86.418930,13.215834 85.467018,10.418119 84.281044,7.723423 
	C82.531815,3.748977 79.695267,1.910805 75.008087,3.609473 
	C81.250114,20.983675 87.432014,38.190525 93.682617,55.588608 
	C96.976135,55.156536 98.705193,54.710537 97.464211,50.695553 
	C93.982239,39.430325 91.030373,28.001249 87.475525,15.967477 
z"/>
<path fill="#BD1900" opacity="1.000000" stroke="none" 
	d="
M27.288395,54.404457 
	C26.128344,50.773502 24.721170,47.545158 24.239285,44.184155 
	C22.648138,33.086391 29.998695,18.534857 43.610382,16.181974 
	C55.290802,14.162927 65.813438,16.391207 72.664413,27.734579 
	C79.041267,38.292953 76.504761,53.591957 67.573219,60.620674 
	C62.715691,64.443329 57.219204,67.212502 50.585018,67.059525 
	C41.678883,66.854149 34.629498,63.306019 29.142881,56.400566 
	C28.657877,55.790146 28.027792,55.294991 27.288395,54.404457 
z"/>
<path fill="#BD1900" opacity="1.000000" stroke="none" 
	d="
M23.549824,3.269562 
	C25.935863,3.922913 27.492031,4.753551 27.014631,7.358982 
	C26.282040,11.357152 25.754637,15.394610 24.946520,19.376095 
	C24.737471,20.406054 23.947269,21.975132 23.185976,22.130547 
	C17.766375,23.236944 17.538403,28.037529 16.162663,31.844019 
	C13.883864,38.149151 12.092909,44.630268 9.831286,50.942242 
	C9.407782,52.124199 7.742248,52.861130 6.649883,53.803429 
	C6.333799,52.411690 5.446842,50.853245 5.796483,49.655907 
	C7.722376,43.060719 9.749892,36.479019 12.148409,30.043972 
	C13.637306,26.049372 14.381263,22.392208 12.750134,18.189392 
	C11.457495,14.858736 16.113615,4.882541 19.416515,3.217391 
	C20.438885,2.701966 21.937807,3.131799 23.549824,3.269562 
z"/>
<path fill="#BD1900" opacity="1.000000" stroke="none" 
	d="
M87.672470,16.302141 
	C91.030373,28.001249 93.982239,39.430325 97.464211,50.695553 
	C98.705193,54.710537 96.976135,55.156536 93.682617,55.588608 
	C87.432014,38.190525 81.250114,20.983675 75.008087,3.609473 
	C79.695267,1.910805 82.531815,3.748977 84.281044,7.723423 
	C85.467018,10.418119 86.418930,13.215834 87.672470,16.302141 
z"/>
</svg>