<svg version="1.1" id="Layer_1" xmlns="http://www.w3.org/2000/svg" xmlns:xlink="http://www.w3.org/1999/xlink" x="0px" y="0px"
	 width="100%" viewBox="0 0 102 68" enable-background="new 0 0 102 68" xml:space="preserve">
<path fill="#000000" opacity="1.000000" stroke="none" 
	d="
M67.000000,69.000000 
	C44.666672,69.000000 22.833342,69.000000 1.000009,69.000000 
	C1.000006,46.333340 1.000006,23.666683 1.000003,1.000018 
	C34.999985,1.000012 68.999969,1.000012 102.999969,1.000006 
	C102.999977,23.666649 102.999977,46.333298 102.999985,68.999969 
	C91.166664,69.000000 79.333336,69.000000 67.000000,69.000000 
M27.379505,54.864151 
	C32.092384,58.832607 36.002945,63.180801 42.408768,65.647530 
	C52.397171,69.493813 65.873550,63.987934 70.759514,57.494183 
	C77.044243,49.141380 78.833076,36.660194 71.387360,25.697855 
	C63.171783,13.602053 43.856808,12.551314 34.315392,20.455334 
	C25.738550,27.560310 21.112148,36.847561 25.792727,48.515160 
	C26.499084,50.275948 26.629219,52.267895 27.379505,54.864151 
M23.020952,3.030466 
	C20.350733,2.052368 18.392515,3.389954 17.178331,5.419196 
	C14.297965,10.233096 10.841174,14.937663 13.535764,21.209299 
	C14.141917,22.620119 13.683075,24.714518 13.188789,26.333750 
	C10.810020,34.126369 8.150866,41.834618 5.859851,49.651543 
	C5.498324,50.885067 6.512184,52.521690 6.890120,53.971939 
	C7.919761,52.981140 9.467574,52.174290 9.895168,50.969769 
	C12.725551,42.996693 15.286728,34.928459 18.015425,26.918421 
	C18.414461,25.747063 19.108255,23.883352 19.887114,23.762066 
	C25.169090,22.939535 25.364731,18.374760 26.615616,14.811906 
	C28.449383,9.588854 26.996212,4.554470 23.020952,3.030466 
M87.481354,15.985145 
	C86.562500,13.427521 85.801514,10.798823 84.689247,8.328276 
	C82.839226,4.218983 80.047554,1.648526 74.944016,3.494304 
	C81.234695,20.970142 87.496513,38.365776 93.757843,55.760063 
	C97.138260,54.950306 98.849541,54.433746 97.258415,50.384495 
	C92.981895,39.501114 90.086426,28.150747 87.481354,15.985145 
z"/>
<path fill="#FFFFFF" opacity="1.000000" stroke="none" 
	d="
M27.202702,54.508533 
	C26.629219,52.267895 26.499084,50.275948 25.792727,48.515160 
	C21.112148,36.847561 25.738550,27.560310 34.315392,20.455334 
	C43.856808,12.551314 63.171783,13.602053 71.387360,25.697855 
	C78.833076,36.660194 77.044243,49.141380 70.759514,57.494183 
	C65.873550,63.987934 52.397171,69.493813 42.408768,65.647530 
	C36.002945,63.180801 32.092384,58.832607 27.202702,54.508533 
z"/>
<path fill="#FFFFFF" opacity="1.000000" stroke="none" 
	d="
M23.399689,3.132406 
	C26.996212,4.554470 28.449383,9.588854 26.615616,14.811906 
	C25.364731,18.374760 25.169090,22.939535 19.887114,23.762066 
	C19.108255,23.883352 18.414461,25.747063 18.015425,26.918421 
	C15.286728,34.928459 12.725551,42.996693 9.895168,50.969769 
	C9.467574,52.174290 7.919761,52.981140 6.890120,53.971939 
	C6.512184,52.521690 5.498324,50.885067 5.859851,49.651543 
	C8.150866,41.834618 10.810020,34.126369 13.188789,26.333750 
	C13.683075,24.714518 14.141917,22.620119 13.535764,21.209299 
	C10.841174,14.937663 14.297965,10.233096 17.178331,5.419196 
	C18.392515,3.389954 20.350733,2.052368 23.399689,3.132406 
z"/>
<path fill="#FFFFFF" opacity="1.000000" stroke="none" 
	d="
M87.720291,16.307505 
	C90.086426,28.150747 92.981895,39.501114 97.258415,50.384495 
	C98.849541,54.433746 97.138260,54.950306 93.757843,55.760063 
	C87.496513,38.365776 81.234695,20.970142 74.944016,3.494304 
	C80.047554,1.648526 82.839226,4.218983 84.689247,8.328276 
	C85.801514,10.798823 86.562500,13.427521 87.720291,16.307505 
z"/>
</svg>