<?xml version="1.0" encoding="UTF-8" standalone="no"?>
<!DOCTYPE svg PUBLIC "-//W3C//DTD SVG 1.1//EN" "http://www.w3.org/Graphics/SVG/1.1/DTD/svg11.dtd">
<svg width="100%" height="100%" viewBox="0 0 752 752" version="1.1" xmlns="http://www.w3.org/2000/svg" xmlns:xlink="http://www.w3.org/1999/xlink" xml:space="preserve" xmlns:serif="http://www.serif.com/" style="fill-rule:evenodd;clip-rule:evenodd;stroke-linejoin:round;stroke-miterlimit:2;">
    <path d="M576.52,296.06C575.68,294.501 574.086,293.541 572.266,293.58L553.235,293.955L547.786,286.447C546.938,285.283 545.618,284.568 544.18,284.498L533.965,284.005L532.422,276.466C532.348,276.099 532.231,275.747 532.071,275.408L529.227,269.333L535.239,267.915C536.594,267.595 537.743,266.697 538.375,265.455C539.004,264.212 539.059,262.755 538.52,261.47L531.879,245.669C531.543,244.864 530.985,244.169 530.274,243.661C503.684,224.559 472.313,214.466 439.547,214.466C389.41,214.466 344.762,238.306 316.257,275.22C273.987,266.509 228.261,278.486 195.527,311.224C191.859,314.892 188.406,318.802 184.968,323.173C184.472,323.806 184.144,324.556 184.015,325.345L180.226,348.9C179.855,351.213 181.226,353.447 183.452,354.162L192.206,356.974L191.648,364.092L190.698,363.338C189.64,362.498 188.284,362.15 186.944,362.381C185.616,362.611 184.448,363.396 183.734,364.545L175.452,377.85L169.898,371.053C169.171,369.311 167.456,368.139 165.527,368.139C163.366,368.139 161.484,369.6 160.941,371.69C149.222,417.022 162.472,465.717 195.523,498.76C221.378,524.615 255.332,537.545 289.296,537.537C318.023,537.533 346.741,528.24 370.562,509.74C391.367,520.064 414.781,525.9 439.542,525.9C525.405,525.9 595.262,456.041 595.262,370.18C595.258,344.301 588.777,318.668 576.516,296.059L576.52,296.06ZM168.03,383.728L172.311,388.966C173.28,390.15 174.772,390.771 176.284,390.697C177.807,390.599 179.194,389.771 179.999,388.474L188.967,374.06L192.725,377.045C194.092,378.13 195.952,378.369 197.561,377.677C199.167,376.978 200.253,375.455 200.393,373.705L201.944,353.986C202.116,351.798 200.76,349.779 198.671,349.107L190.221,346.392L193.167,328.072C196.116,324.381 199.089,321.052 202.221,317.92C231.533,288.611 272.061,277.232 310.111,283.705C303.865,293.021 298.627,303.06 294.486,313.646C269.322,312.232 243.689,321.017 224.513,340.201C190.353,374.361 188.939,428.959 220.107,464.911C219.943,465.227 219.756,465.524 219.662,465.88L214.506,485.974L205.33,483.431C204.064,483.075 202.724,483.263 201.611,483.942C200.494,484.618 199.709,485.728 199.431,487.001L199.064,488.712C172.97,460.552 161.474,421.458 168.029,383.722L168.03,383.728ZM327.22,477.876C301.232,491.372 269.505,490.048 244.634,473.927L245.845,474.052C248.071,474.231 250.153,472.919 250.841,470.79L256.052,454.591L267.724,459.997C270.087,461.095 272.911,460.064 274.013,457.689C275.115,455.318 274.079,452.505 271.708,451.403L255.177,443.743C253.943,443.173 252.529,443.161 251.287,443.7C250.045,444.247 249.095,445.294 248.677,446.587L243.005,464.232L231.134,463.002C199.181,430.959 199.204,378.9 231.213,346.892C247.233,330.876 268.272,322.865 289.315,322.865C289.932,322.865 290.545,322.939 291.162,322.954C286.408,337.86 283.818,353.724 283.818,370.181C283.818,411.947 300.373,449.888 327.22,477.881L327.22,477.876ZM207.06,496.642L207.646,493.904L216.63,496.396C217.861,496.732 219.169,496.568 220.267,495.927C221.369,495.294 222.165,494.24 222.482,493.005L227.697,472.665C245.127,488.544 267.185,496.583 289.306,496.583C304.833,496.583 320.322,492.587 334.224,484.771C342.505,492.388 351.626,499.103 361.408,504.802C315.056,538.333 250.448,535.622 207.058,496.642L207.06,496.642ZM293.29,370.182C293.29,305.877 335.024,251.172 392.817,231.632L386.169,249.523C385.34,251.754 386.298,254.254 388.403,255.363L405.106,264.152C360.43,278.699 328.044,320.722 328.044,370.192C328.044,414.989 354.61,453.672 392.802,471.382L405.279,497.976L390.631,508.003C333.971,487.831 293.291,433.683 293.291,370.193L293.29,370.182ZM432.59,297.791L408.5,286.572L415.566,271.115C423.27,269.248 431.269,268.154 439.539,268.154C495.797,268.154 541.569,313.924 541.569,370.184C541.569,426.442 495.796,472.214 439.539,472.214C426.488,472.214 414.043,469.659 402.559,465.171L421.75,452.335C423.641,451.073 424.368,448.64 423.477,446.546L414.954,426.507C413.938,424.101 411.153,422.972 408.743,424.003C406.337,425.027 405.215,427.804 406.239,430.214L413.227,446.64L392.391,460.574C359.817,443.515 337.508,409.429 337.508,370.183C337.508,326.648 364.965,289.499 403.434,274.874L397.934,286.909C396.852,289.276 397.883,292.073 400.243,293.171L428.598,306.374C429.246,306.674 429.926,306.819 430.59,306.819C432.375,306.819 434.086,305.807 434.887,304.081C435.988,301.714 434.961,298.893 432.59,297.792L432.59,297.791ZM439.535,516.431C426.617,516.431 414.094,514.728 402.156,511.572L413.941,503.505C415.859,502.197 416.539,499.685 415.555,497.587L405.605,476.388C416.308,479.814 427.707,481.681 439.531,481.681C501.011,481.681 551.031,431.665 551.031,370.181C551.035,308.701 501.019,258.681 439.531,258.681C432.082,258.681 424.804,259.431 417.758,260.83C417.333,260.189 416.805,259.607 416.079,259.224L396.485,248.915L404.153,228.278C415.489,225.45 427.333,223.927 439.532,223.927C469.856,223.927 498.915,233.137 523.653,250.575L527.602,259.973L521.364,261.442C519.977,261.766 518.809,262.703 518.188,263.989C517.567,265.274 517.559,266.77 518.164,268.059L523.242,278.907L525.41,289.497C525.844,291.618 527.657,293.173 529.821,293.278L541.442,293.837L547.008,301.509C547.918,302.762 549.473,303.505 550.934,303.462L569.52,303.095C580.161,323.7 585.778,346.825 585.778,370.173C585.782,450.825 520.176,516.433 439.528,516.433L439.535,516.431Z" style="fill:white;fill-rule:nonzero;"/>
</svg>
