<?xml version="1.0" encoding="utf-8"?>
<!-- Cutting Board icon by Arthur Shlain from Usefulicons.com -->
<svg xmlns="http://www.w3.org/2000/svg" xmlns:xlink="http://www.w3.org/1999/xlink" xml:space="preserve" version="1.1" x="0px" y="0px" viewBox="0 0 100 100" width="400px" height="400px"><path d="M75,10L25,10C22.239,10,20,12.239,20,15L20,85C20,87.761,22.239,90,25,90L75,90C77.761,90,80,87.761,80,85L80,15C80,12.239,77.761,10,75,10ZM60,25L40,25C37.239,25,35,22.761,35,20S37.239,15,40,15L60,15C62.761,15,65,17.239,65,20S62.761,25,60,25Z" stroke="none"></path></svg>